Coordinates
version=1
nRows=49
nColumns=12
inDegrees=yes

Units are S.I. units (second, meters, Newtons, ...)
Angles are in degrees

endheader
time	SC_y	SC_z	SC_x	AC_y	AC_z	AC_x	GH_y	GH_z	GH_yy	EL_x	PS_y
       0.0              -25.67          20.51          3.398          46.66        -0.5144          9.223         -106.4          26.38          44.04          43.74          96.17
   0.04869              -25.68           20.5          3.401          46.66        -0.5162          9.223         -106.4          26.37          44.02          43.75          96.17
   0.09737              -25.68           20.5          3.405          46.66        -0.5181          9.223         -106.4          26.37           44.0          43.77          96.17
    0.1461              -25.68           20.5          3.408          46.66        -0.5201          9.223         -106.4          26.37          43.98          43.78          96.17
    0.1947              -25.69           20.5          3.412          46.65        -0.5223          9.223         -106.4          26.37          43.96           43.8          96.18
    0.2434              -25.69          20.49          3.416          46.65        -0.5246          9.223         -106.4          26.36          43.93          43.81          96.18
    0.2921              -25.69          20.49           3.42          46.65        -0.5271          9.224         -106.4          26.36          43.91          43.83          96.18
    0.3408               -25.7          20.49          3.425          46.65        -0.5298          9.224         -106.4          26.36          43.88          43.85          96.18
    0.3895               -25.7          20.49           3.43          46.64        -0.5326          9.224         -106.4          26.35          43.85          43.87          96.18
    0.4382              -25.71          20.48          3.435          46.64        -0.5356          9.224         -106.4          26.35          43.82           43.9          96.19
    0.4869              -25.71          20.48          3.441          46.64        -0.5389          9.225         -106.5          26.34          43.79          43.92          96.19
    0.5355              -25.72          20.47          3.447          46.63        -0.5424          9.225         -106.5          26.34          43.76          43.95          96.19
    0.5842              -25.73          20.47          3.453          46.63        -0.5462          9.225         -106.5          26.33          43.72          43.97          96.19
    0.6329              -25.73          20.47          3.461          46.62        -0.5503          9.226         -106.5          26.33          43.68           44.0           96.2
    0.6816              -25.74          20.46          3.468          46.62        -0.5548          9.226         -106.5          26.32          43.63          44.04           96.2
    0.7303              -25.75          20.46          3.477          46.61        -0.5596          9.226         -106.5          26.31          43.58          44.07           96.2
     0.779              -25.76          20.45          3.486          46.61        -0.5648          9.227         -106.6          26.31          43.53          44.11          96.21
    0.8277              -25.77          20.44          3.496           46.6        -0.5705          9.227         -106.6           26.3          43.47          44.15          96.21
    0.8763              -25.78          20.44          3.506          46.59        -0.5767          9.228         -106.6          26.29          43.41           44.2          96.22
     0.925              -25.79          20.43          3.518          46.59        -0.5835          9.228         -106.6          26.28          43.34          44.25          96.22
    0.9737               -25.8          20.42          3.531          46.58         -0.591          9.229         -106.6          26.27          43.27          44.31          96.23
     1.022              -25.81          20.41          3.546          46.57        -0.5992           9.23         -106.7          26.26          43.18          44.37          96.23
     1.071              -25.83           20.4          3.561          46.56        -0.6083           9.23         -106.7          26.25          43.09          44.43          96.24
      1.12              -25.84          20.39          3.579          46.55        -0.6184          9.231         -106.8          26.23          42.99          44.51          96.25
     1.168              -25.86          20.38          3.598          46.53        -0.6295          9.232         -106.8          26.22          42.88          44.59          96.26
     1.217              -25.88          20.36           3.62          46.52         -0.642          9.233         -106.8           26.2          42.75          44.68          96.27
     1.266              -25.91          20.35          3.644           46.5         -0.656          9.235         -106.9          26.18          42.61          44.79          96.28
     1.315              -25.93          20.33          3.672          46.49        -0.6718          9.236         -106.9          26.16          42.45           44.9          96.29
     1.363              -25.96          20.31          3.703          46.47        -0.6895          9.237         -107.0          26.13          42.27          45.04           96.3
     1.412              -25.99          20.29          3.738          46.44        -0.7097          9.239         -107.1          26.11          42.07          45.18          96.32
     1.461              -26.03          20.26          3.778          46.42        -0.7328          9.241         -107.2          26.07          41.84          45.36          96.34
     1.509              -26.08          20.23          3.824          46.39        -0.7592          9.243         -107.3          26.04          41.57          45.55          96.36
     1.558              -26.13           20.2          3.877          46.35        -0.7897          9.246         -107.4          25.99          41.26          45.78          96.38
     1.607              -26.18          20.16          3.939          46.31        -0.8252          9.249         -107.5          25.95          40.91          46.04          96.41
     1.655              -26.25          20.11          4.011          46.27        -0.8667          9.252         -107.7          25.89          40.49          46.35          96.44
     1.704              -26.33          20.06          4.096          46.21        -0.9156          9.257         -107.9          25.82          39.99          46.71          96.48
     1.753              -26.43           20.0          4.197          46.14        -0.9738          9.262         -108.1          25.74          39.41          47.14          96.52
     1.801              -26.54          19.92          4.318          46.07         -1.043          9.267         -108.3          25.64          38.71          47.66          96.58
      1.85              -26.68          19.83          4.465          45.97         -1.128          9.275         -108.6          25.53          37.86          48.28          96.64
     1.899              -26.85          19.71          4.644          45.85         -1.231          9.283         -109.0          25.38          36.82          49.04          96.72
     1.947              -27.06          19.57          4.865          45.71         -1.358          9.294         -109.5          25.21          35.54          49.99          96.82
     1.996              -27.32          19.39          5.141          45.53         -1.516          9.308         -110.1          24.99          33.94          51.16          96.94
     2.045              -27.65          19.17          5.488          45.31         -1.716          9.325         -110.8          24.71          31.93          52.64           97.1
     2.093              -28.07          18.89           5.93          45.02          -1.97          9.346         -111.8          24.36          29.37          54.52           97.3
     2.142              -28.61          18.53          6.495          44.65         -2.295          9.374         -113.0          23.91          26.09          56.92          97.55
     2.191              -29.29          18.07           7.22          44.18         -2.712          9.409         -114.5          23.33          21.89          60.01          97.87
      2.24              -30.17          17.48          8.146          43.58         -3.245          9.455         -116.5          22.59          16.52          63.96          98.28
     2.288              -31.27          16.74          9.311          42.82         -3.914          9.512         -119.0          21.66          9.776          68.92           98.8
     2.337              -32.62          15.83          10.73           41.9          -4.73          9.581         -122.0          20.52          1.551          74.96          99.43
